# xmcd
#
# Track frame offsets: 
#        150
#        12184
#        22215
#        31676
#        41828
#        53073
#        64257
#        77436
#        86911
#        96428
#        107745
#        118155
#        128834
#        139380
#        148157
#        159167
#        170131
#        179934
#
# Disc length: 2554 seconds
#
# Revision: 1
# Processed by: cddbd v1.5.2PL0 Copyright (c) Steve Scherf et al.
# Submitted via: ExactAudioCopy v1.1
#
DISCID=0809f812
DTITLE=The Vibrations - Out Of Sight!! The Checker Years [CD1]
DYEAR=2004
DGENRE=R&B/Soul
TTITLE0=The Watusi (mono)
TTITLE1=Wallflower (mono)
TTITLE2=So Blue (mono)
TTITLE3=Love Me Like You Should (mono)
TTITLE4=Cave Man (mono)
TTITLE5=Feel So Bad (mono)
TTITLE6=Doing The Slop (mono)
TTITLE7=So Little Time (mono)
TTITLE8=Serenade Of The Bells (mono)
TTITLE9=Time After Time (mono)
TTITLE10=People Say (mono)
TTITLE11=Sweet Slumber (mono)
TTITLE12=I Had A Dream (mono)
TTITLE13=Everlasting Love (mono)
TTITLE14=Talk That Talk (mono)
TTITLE15=I Still Love You (mono)
TTITLE16=Continental With Me Baby (mono)
TTITLE17=The Junkeroo (mono)
EXTD=
EXTT0=
EXTT1=
EXTT2=
EXTT3=
EXTT4=
EXTT5=
EXTT6=
EXTT7=
EXTT8=
EXTT9=
EXTT10=
EXTT11=
EXTT12=
EXTT13=
EXTT14=
EXTT15=
EXTT16=
EXTT17=
PLAYORDER=
